<svg x="0" y="0" width="350" height="350" viewBox="0 0 350 350" xmlns="http://www.w3.org/2000/svg" xmlns:xlink="http://www.w3.org/1999/xlink" xmlns:fi="http://pattern.flaticon.com/"><rect x="0px" y="0px" width="100%" height="100%" opacity="0" fill="#ffffff"/><defs><g transform="matrix(0.11718704551458359 0 0 0.11718704551458359 125 59)" id="L1_0"><path d="M204.238,280.912c-10.934-14.73-28.457-24.278-48.211-24.278c-33.142,0-60.01,26.867-60.01,60.01  s26.867,60.01,60.01,60.01c6.732,0,13.197-1.125,19.239-3.17c7.221,4.1,15.562,6.453,24.458,6.453  c27.404,0,49.618-22.215,49.618-49.618C249.342,304.436,229.524,283.193,204.238,280.912z" fill="#47821c"/><path d="M248.985,512.001c-11.814,0-21.392-9.578-21.392-21.392V224.011c0-11.814,9.578-21.392,21.392-21.392  c11.814,0,21.392,9.578,21.392,21.392v266.598C270.377,502.424,260.799,512.001,248.985,512.001z" fill="#cc7400"/><path d="M248.985,490.609V224.011c0-7.913,4.308-14.806,10.696-18.507c-3.149-1.825-6.795-2.885-10.696-2.885  c-11.814,0-21.392,9.578-21.392,21.392v266.598c0,11.814,9.578,21.392,21.392,21.392c3.901,0,7.547-1.061,10.696-2.885  C253.293,505.415,248.985,498.523,248.985,490.609z" fill="#aa6100"/><path d="M432.464,178.436c2.705-7.55,4.189-15.681,4.189-24.161c0-39.561-32.07-71.631-71.631-71.631  s-71.631,32.07-71.631,71.631c0,4.549,0.443,8.991,1.253,13.304c-40.745,7.042-71.746,42.535-71.746,85.291  c0,47.819,38.765,86.584,86.584,86.584c42.617,0,78.018-30.8,85.221-71.349c7.697,4.954,16.85,7.84,26.684,7.84  c27.274,0,49.386-22.111,49.386-49.386C470.776,203.094,454.405,183.465,432.464,178.436z" fill="#4e901e"/><g><path d="M399.965,158.283c0-27.919-9.67-54.277-26.63-75.144c-2.728-0.316-5.5-0.496-8.313-0.496   c-39.561,0-71.631,32.07-71.631,71.631c0,4.549,0.443,8.991,1.253,13.304c-40.745,7.042-71.746,42.535-71.746,85.291   c0,36.69,22.832,68.027,55.053,80.637c14.276-15.826,23.793-36.026,26.224-58.332C358.732,264.263,399.965,216,399.965,158.283z" fill="#47821c"/><path d="M324.535,313.844c-3.424,0-6.572-2.26-7.548-5.718c-1.176-4.17,1.251-8.505,5.422-9.681   c17.307-4.881,30.522-19.483,33.669-37.199c0.758-4.267,4.832-7.117,9.097-6.353c4.266,0.757,7.111,4.831,6.353,9.097   c-4.193,23.602-21.801,43.056-44.859,49.559C325.958,313.747,325.241,313.844,324.535,313.844z" fill="#47821c"/></g><path d="M200.627,191.729c-12.403,0-24.074,3.135-34.266,8.653c-10.556-7.863-23.642-12.519-37.818-12.519  c-0.536,0-1.064,0.027-1.596,0.041c-7.086-15.474-22.695-26.23-40.827-26.23c-24.794,0-44.893,20.099-44.893,44.893  c0,17.308,9.8,32.318,24.15,39.811c-0.121,1.605-0.204,3.221-0.204,4.857c0,34.999,28.372,63.371,63.371,63.371  c6.395,0,12.564-0.956,18.384-2.718c13.198,14.733,32.363,24.011,53.699,24.011c39.811,0,72.084-32.273,72.084-72.084  S240.438,191.729,200.627,191.729z" fill="#5eac24"/><g><path d="M119.301,272.699c-14.349-7.492-24.15-22.502-24.15-39.811c0-23.215,17.623-42.313,40.221-44.651   c-2.244-0.241-4.519-0.377-6.828-0.377c-0.536,0-1.064,0.027-1.596,0.041c-7.085-15.474-22.695-26.23-40.827-26.23   c-24.794,0-44.893,20.099-44.893,44.893c0,17.308,9.8,32.318,24.151,39.811c-0.122,1.605-0.204,3.221-0.204,4.857   c0,34.999,28.372,63.371,63.371,63.371c0.834,0,1.663-0.018,2.49-0.05c-7.502-10.412-11.936-23.183-11.936-36.996   C119.097,275.92,119.18,274.304,119.301,272.699z" fill="#4e901e"/><path d="M200.627,191.729c-12.403,0-24.074,3.135-34.266,8.653c-10.557-7.863-23.642-12.519-37.818-12.519   c-0.536,0-1.064,0.027-1.596,0.041c-7.085-15.474-22.695-26.23-40.827-26.23c-4.694,0-9.219,0.723-13.471,2.06   c9.398,50.151,53.503,88.225,106.34,88.225c8.383,0,16.602-0.938,24.597-2.802c19.031,16.236,42.647,26.019,67.88,27.959   c0.805-4.312,1.245-8.754,1.245-13.3C272.712,224.002,240.438,191.729,200.627,191.729z" fill="#4e901e"/></g><path d="M321.327,81.187c0.429-3.168,0.671-6.396,0.671-9.682C321.997,32.015,289.984,0,250.492,0  c-38.199,0-69.398,29.955-71.398,67.655c-0.036,0-0.07-0.003-0.106-0.003c-42.033,0-76.107,34.074-76.107,76.107  s34.074,76.107,76.107,76.107c11.964,0,23.278-2.768,33.351-7.687c15.954,20.224,40.661,33.222,68.419,33.222  c48.115,0,87.12-39.005,87.12-87.12C367.878,124.82,349.002,95.781,321.327,81.187z" fill="#6dc82a"/><g><path d="M216.32,111.237c0.036,0,0.07,0.003,0.106,0.003c2-37.7,33.2-67.655,71.398-67.655   c11.14,0,21.683,2.549,31.081,7.093c-8.917-29.33-36.168-50.677-68.413-50.677c-38.199,0-69.398,29.955-71.398,67.655   c-0.036,0-0.07-0.003-0.106-0.003c-42.033,0-76.107,34.074-76.107,76.107c0,29.461,16.75,54.992,41.236,67.642   c-2.519-7.565-3.904-15.647-3.904-24.059C140.213,145.312,174.287,111.237,216.32,111.237z" fill="#5eac24"/><path d="M280.758,221.864c-4.334,0-7.846-3.513-7.846-7.846c0-4.333,3.512-7.846,7.846-7.846   c26.406,0,47.889-21.483,47.889-47.889c0-4.333,3.512-7.846,7.846-7.846c4.334,0,7.846,3.513,7.846,7.846   C344.339,193.342,315.816,221.864,280.758,221.864z" fill="#5eac24"/><circle cx="172" cy="184" r="19" fill="#5eac24"/></g><circle cx="202" cy="294" r="19" fill="#4e901e"/><g><circle cx="272" cy="108" r="19" fill="#5eac24"/><circle cx="292" cy="151" r="7" fill="#5eac24"/><circle cx="222" cy="155" r="7" fill="#5eac24"/><circle cx="245" cy="193" r="7" fill="#5eac24"/></g><circle cx="149" cy="270" r="7" fill="#4e901e"/><path d="M464.299,512.001c3.443-5.529,5.437-12.053,5.437-19.046c0-17.822-12.921-32.618-29.906-35.554  c-3.349-27.418-26.695-48.659-55.017-48.659c-30.621,0-55.444,24.823-55.444,55.444c0,0.989,0.028,1.97,0.079,2.945  c-12.26,5.396-20.823,17.643-20.823,31.898c0,4.586,0.894,8.96,2.506,12.971L464.299,512.001L464.299,512.001z" fill="#6dc82a"/><g><path d="M365.162,483.871c-0.051-0.975-0.079-1.957-0.079-2.945c0-30.621,24.823-55.444,55.444-55.444   c1.386,0,2.756,0.066,4.116,0.165c-10.076-10.419-24.189-16.904-39.83-16.904c-30.621,0-55.444,24.823-55.444,55.444   c0,0.989,0.028,1.97,0.079,2.945c-12.26,5.396-20.823,17.643-20.823,31.898c0,4.586,0.894,8.96,2.506,12.971h33.434   C345.924,499.384,354,488.784,365.162,483.871z" fill="#5eac24"/><circle cx="404" cy="472" r="19" fill="#5eac24"/><circle cx="445" cy="480" r="7" fill="#5eac24"/></g><path d="M187.441,511.682c1.484-3.818,2.309-7.968,2.309-12.312c0-18.773-15.22-33.993-33.993-33.993  c-1.674,0-3.318,0.127-4.927,0.36c-6.92-20.572-26.35-35.395-49.253-35.395c-28.701,0-51.968,23.267-51.968,51.968  c0,10.902,3.363,21.014,9.099,29.371h128.733V511.682z" fill="#6dc82a"/><g><path d="M133.339,447.087c2.317,0,4.597,0.159,6.834,0.453c-9.508-10.555-23.271-17.198-38.596-17.198   c-28.701,0-51.968,23.267-51.968,51.968c0,10.902,3.363,21.014,9.099,29.371h24.22c-1.011-4.043-1.557-8.27-1.557-12.627   C81.371,470.354,104.638,447.087,133.339,447.087z" fill="#5eac24"/><circle cx="112" cy="480" r="7" fill="#5eac24"/><circle cx="148" cy="492" r="7" fill="#5eac24"/></g></g><g transform="matrix(0.7993381023406982 0.12297509610652924 -0.12297509610652924 0.7993381023406982 246.8166046142578 172.1597442626953)" id="L1_1"><path d="M44.838,4.23c-0.207-0.248-0.426-0.488-0.659-0.721s-0.473-0.452-0.721-0.659   c-5.324-4.443-13.525-1.6-15.521,5.04c-1.1,3.659-3.092,8.513-6.171,10.172c1.121,1,2.247,2.059,3.368,3.18   c1.601,1.601,3.076,3.214,4.423,4.803c1.593-3.15,6.531-5.181,10.24-6.295C46.438,17.755,49.281,9.553,44.838,4.23z" fill="#fbc134"/><path d="M27.753,32.658c-0.45,2.239-1.539,4.374-3.275,6.11c-4.686,4.686-12.284,4.686-16.971,0   s-4.686-12.284,0-16.971c1.736-1.736,3.872-2.825,6.11-3.275l-2.46-3.478c-2.371,0.748-4.603,2.048-6.479,3.924   c-6.238,6.238-6.238,16.389,0,22.627s16.389,6.238,22.627,0c1.876-1.876,3.176-4.108,3.924-6.479L27.753,32.658z" fill="#a4e869"/><path d="M40.982,8.395c-0.278,0-0.554-0.115-0.751-0.339c-1.91-2.173-4.588-2.173-6.498,0   c-0.364,0.414-0.995,0.456-1.412,0.09c-0.415-0.365-0.455-0.997-0.09-1.412c1.327-1.508,3.014-2.339,4.751-2.339   s3.424,0.831,4.751,2.339c0.365,0.415,0.324,1.047-0.09,1.412C41.452,8.313,41.216,8.395,40.982,8.395z" fill="#f9e4c2"/><path d="M29.558,26.045c-1.348-1.59-2.822-3.202-4.423-4.803c-1.121-1.121-2.248-2.181-3.368-3.18   c1.731-0.933,3.119-2.875,4.198-5.048C18.01,6.115,10.543,2.543,8.214,4.871c-2.734,2.734,2.648,12.548,12.021,21.92   c9.373,9.373,19.187,14.754,21.92,12.021c2.261-2.261-1.039-9.366-7.547-17.058C32.409,22.855,30.454,24.273,29.558,26.045z" fill="#2fb9e9"/></g><g transform="matrix(0.12931033968925476 0 0 0.12931033968925476 19.999998092651367 258)" id="L1_2"><rect x="288px" y="116px" width="24px" height="55px" fill="#d24146"/><path d="M312,116h-24c-8.837,0-16-7.163-16-16l0,0c0-8.837,7.163-16,16-16h24c8.837,0,16,7.163,16,16l0,0     C328,108.837,320.837,116,312,116z" fill="#e15050"/><path d="M192,164 192,60 0,60 0,300 408,300 408,164z" fill="#ffc855"/><path d="M408,348H16c-8.837,0-16-7.163-16-16v-32h408V348z" fill="#e15050"/><path d="M224,236h184v-72H192v40C192,221.673,206.327,236,224,236z" fill="#ffd680"/><rect x="0px" y="284px" width="408px" height="16px" fill="#ffb44b"/><circle cx="120" cy="316" r="80" fill="#5f505a"/><circle cx="272" cy="372" r="40" fill="#5f505a"/><circle cx="376" cy="372" r="40" fill="#5f505a"/><path d="M120,420c-57.344,0-104-46.656-104-104s46.656-104,104-104s104,46.656,104,104      S177.344,420,120,420z M120,228c-48.523,0-88,39.477-88,88s39.477,88,88,88s88-39.477,88-88S168.523,228,120,228z" fill="#736e7d"/><path d="M120,228c-48.523,0-88,39.477-88,88s39.477,88,88,88s88-39.477,88-88S168.523,228,120,228z    M191.545,308h-52.232l36.907-36.907C184.511,281.451,190.005,294.134,191.545,308z M128,244.455   c13.866,1.54,26.549,7.034,36.907,15.325L128,296.688V244.455z M112,296.688L75.093,259.78   c10.359-8.291,23.041-13.785,36.907-15.325V296.688z M112,387.545c-13.866-1.54-26.549-7.034-36.907-15.325L112,335.313V387.545z    M128,335.313l36.907,36.907c-10.359,8.291-23.041,13.785-36.907,15.325V335.313z M63.78,271.093L100.688,308H48.455   C49.995,294.134,55.489,281.451,63.78,271.093z M48.455,324h52.232L63.78,360.907C55.489,350.549,49.995,337.866,48.455,324z    M176.22,360.907L139.313,324h52.232C190.005,337.866,184.511,350.549,176.22,360.907z" fill="#503c46"/><path d="M306,364h-20.142l10.072-17.445c2.211-3.828,0.898-8.719-2.93-10.93s-8.719-0.898-10.93,2.93   L272,355.997l-10.07-17.442c-2.211-3.836-7.117-5.141-10.93-2.93c-3.828,2.211-5.141,7.102-2.93,10.93L258.142,364H238   c-4.422,0-8,3.578-8,8s3.578,8,8,8h20.142l-10.072,17.445c-2.211,3.828-0.898,8.719,2.93,10.93c1.258,0.727,2.633,1.07,3.992,1.07   c2.766,0,5.453-1.438,6.938-4L272,388.003l10.07,17.443c1.484,2.57,4.172,4,6.938,4c1.359,0,2.734-0.344,3.992-1.07   c3.828-2.211,5.141-7.102,2.93-10.93L285.858,380H306c4.422,0,8-3.578,8-8S310.422,364,306,364z" fill="#503c46"/><path d="M272,420c-26.469,0-48-21.531-48-48s21.531-48,48-48s48,21.531,48,48S298.469,420,272,420z       M272,340c-17.648,0-32,14.352-32,32s14.352,32,32,32s32-14.352,32-32S289.648,340,272,340z" fill="#736e7d"/><path d="M408,380h56l-27.977-69.942c-2.43-6.075-8.313-10.058-14.856-10.058H408V380z" fill="#d24146"/><path d="M410,364h-20.142l10.072-17.445c2.211-3.828,0.898-8.719-2.93-10.93   c-3.82-2.203-8.719-0.891-10.93,2.93L376,355.997l-10.07-17.442c-2.219-3.836-7.117-5.133-10.93-2.93   c-3.828,2.211-5.141,7.102-2.93,10.93L362.142,364H342c-4.422,0-8,3.578-8,8s3.578,8,8,8h20.142l-10.072,17.445   c-2.211,3.828-0.898,8.719,2.93,10.93c1.258,0.727,2.633,1.07,3.992,1.07c2.766,0,5.453-1.438,6.938-4L376,388.003l10.07,17.443   c1.484,2.57,4.172,4,6.938,4c1.359,0,2.734-0.344,3.992-1.07c3.828-2.211,5.141-7.102,2.93-10.93L389.858,380H410   c4.422,0,8-3.578,8-8S414.422,364,410,364z" fill="#503c46"/><path d="M376,420c-26.469,0-48-21.531-48-48s21.531-48,48-48s48,21.531,48,48S402.469,420,376,420z       M376,340c-17.648,0-32,14.352-32,32s14.352,32,32,32s32-14.352,32-32S393.648,340,376,340z" fill="#736e7d"/><path d="M224,68H0v-8c0-8.837,7.163-16,16-16h192L224,68z" fill="#e15050"/><path d="M112,164H40c-8.837,0-16-7.163-16-16v-48c0-8.837,7.163-16,16-16h72c8.837,0,16,7.163,16,16v48     C128,156.837,120.837,164,112,164z" fill="#00dceb"/><path d="M192,164h-24c-8.837,0-16-7.163-16-16v-48c0-8.837,7.163-16,16-16h24V164z" fill="#00dceb"/><path d="M448.2,253.1L408,300V164l40.2,46.9c5.033,5.872,7.8,13.351,7.8,21.086v0.029     C456,239.749,453.233,247.228,448.2,253.1z" fill="#e15050"/><rect x="0px" y="68px" width="192px" height="16px" fill="#ffb44b"/><path d="M368,196h16c4.418,0,8-3.582,8-8l0,0c0-4.418-3.582-8-8-8h-16c-4.418,0-8,3.582-8,8l0,0     C360,192.418,363.582,196,368,196z" fill="#fff0be"/><path d="M248,196h88c4.418,0,8-3.582,8-8l0,0c0-4.418-3.582-8-8-8h-88c-4.418,0-8,3.582-8,8l0,0     C240,192.418,243.582,196,248,196z" fill="#ffe6a1"/></g><g transform="matrix(0.15746596455574036 0 0 0.15746596455574036 180.688720703125 273.688720703125)" id="L1_3"><g><path d="M283.826,512c-9.217,0-16.696-7.479-16.696-16.696V336.489c0-9.217,7.479-16.696,16.696-16.696   c9.217,0,16.696,7.479,16.696,16.696v158.816C300.522,504.521,293.043,512,283.826,512z" fill="#99522e"/><path d="M350.609,512c-9.217,0-16.696-7.479-16.696-16.696v-67.793c0-9.217,7.479-16.696,16.696-16.696   c9.217,0,16.696,7.479,16.696,16.696v67.793C367.304,504.521,359.826,512,350.609,512z" fill="#99522e"/></g><path d="M495.304,512h-2.978c-78.946,0-150.402-46.728-182.033-119.054  c-15.695-35.859-51.119-59.032-90.271-59.032h-2.979c-9.217,0-16.696-7.479-16.696-16.696v-66.783  c0-9.217,7.479-16.696,16.696-16.696h2.979c78.946,0,150.402,46.728,182.033,119.054c15.695,35.859,51.119,59.032,90.271,59.032  h2.978c9.217,0,16.696,7.479,16.696,16.696v66.783C512,504.521,504.521,512,495.304,512z" fill="#43bfbf"/><path d="M150.261,400.696H83.478c-9.217,0-16.696-7.479-16.696-16.696c0-9.217,7.479-16.696,16.696-16.696  h66.783c9.217,0,16.696,7.479,16.696,16.696C166.957,393.217,159.478,400.696,150.261,400.696z" fill="#e6563a"/><path d="M150.261,367.304H116.87v33.391h33.391c9.217,0,16.696-7.479,16.696-16.696  C166.957,374.783,159.478,367.304,150.261,367.304z" fill="#d9472b"/><path d="M150.261,467.478H83.478c-9.217,0-16.696-7.479-16.696-16.696c0-9.217,7.479-16.696,16.696-16.696  h66.783c9.217,0,16.696,7.479,16.696,16.696C166.957,460,159.478,467.478,150.261,467.478z" fill="#e6563a"/><path d="M150.261,434.087H116.87v33.391h33.391c9.217,0,16.696-7.479,16.696-16.696  C166.957,441.565,159.478,434.087,150.261,434.087z" fill="#d9472b"/><path d="M228.143,111.304H7.791l-2.899-6.239L105.066,4.892c6.521-6.521,17.087-6.521,23.609,0  l100.174,100.174L228.143,111.304z" fill="#e6563a"/><path d="M228.143,111.304H116.87V0c4.272,0,8.544,1.631,11.804,4.892l100.174,100.174L228.143,111.304z" fill="#d9472b"/><path d="M217.043,100.174H16.696C7.479,100.174,0,107.652,0,116.87v378.435C0,504.521,7.479,512,16.696,512  h50.087c9.217,0,16.696-7.479,16.696-16.696V333.913h66.783v161.391c0,9.217,7.479,16.696,16.696,16.696h50.087  c9.217,0,16.696-7.479,16.696-16.696V116.87C233.739,107.652,226.261,100.174,217.043,100.174z M166.957,250.435  c0,9.217-7.479,16.696-16.696,16.696H83.478c-9.217,0-16.696-7.479-16.696-16.696v-33.391c0-27.619,22.468-50.087,50.087-50.087  s50.087,22.468,50.087,50.087V250.435z" fill="#ffc033"/><path d="M217.043,100.174H116.87v66.783c27.619,0,50.087,22.468,50.087,50.087v33.391  c0,9.217-7.479,16.696-16.696,16.696H116.87v66.783h33.391v161.391c0,9.217,7.479,16.696,16.696,16.696h50.087  c9.217,0,16.696-7.479,16.696-16.696V116.87C233.739,107.652,226.261,100.174,217.043,100.174z" fill="#f9a926"/></g><g transform="matrix(0.1171872690320015 0 0 0.1171872690320015 -6.000001907348633 96)" id="L1_4"><g><path d="M490.574,143.459c-0.271-49.084-42.576-71.864-78.372-71.864c-52.627,0-85.131,49.83-101.015,83.255   c-8.604,18.106-26.885,29.558-46.932,29.558h-77.679l26.034,104.135c15.186,0,122.393-9.455,189.195,109.17l27.753-10.638   c0,0-13.599-50.487-44.39-89.854c18.356-26.034,25.213-50.598,9.677-104.135c-9.408-32.422,12.211-40.669,25.421-42.732   c4.752-0.742,8.87,3.312,8.362,8.094l-5.47,51.555c-1.332,5.326,1.215,10.863,6.126,13.317c5.155,2.577,11.418,1.022,14.769-3.669   l37.572-52.601h21.798c2.326,0,3.928-2.314,3.198-4.521C502.669,150.588,490.574,143.459,490.574,143.459z" fill="#00d2b9"/><path d="M143.187,193.086c-23.864,9.22-39.363-1.18-60.745,26.034c-15.98,20.339-8.613,69.646-33.102,89.63   c-3.551,2.898-1.951,8.608,2.612,9.038c13.228,1.249,34.876-2.186,56.525-29.246C136.135,253.97,143.187,193.086,143.187,193.086z" fill="#00d2b9"/></g><circle cx="416" cy="101" r="13" fill="#00bea9"/><path d="M203.933,184.408c0,23.963,19.427,43.389,43.389,43.389s43.389-19.427,43.389-43.389H203.933z" fill="#ffa54b"/><path d="M272.136,193.086h-59.525c-4.797,0-8.678-3.886-8.678-8.678c0-4.792,3.881-8.678,8.678-8.678h59.525  c8.72,0,16.822-4.335,21.661-11.594l7.051-10.576c2.652-3.992,8.025-5.072,12.034-2.407c3.992,2.657,5.068,8.047,2.407,12.034  l-7.051,10.576C300.17,185.861,286.67,193.086,272.136,193.086z" fill="#ffc855"/><g><path d="M65.087,380.31v1.557C124.273,410.626,189.178,425.64,256,425.64s131.727-15.014,190.914-43.773   v-1.558c0-12.661-13.035-20.875-24.612-15.749C370.263,387.604,313.901,399.605,256,399.605S141.738,387.604,89.698,364.56   C78.122,359.435,65.087,367.649,65.087,380.31z" fill="#00bea9"/><path d="M82.443,392.677l50.844-181.588c5.853-20.906,24.909-35.359,46.619-35.359l0,0   c33.785,0,58.177,32.337,48.896,64.822l-11.161,39.064c-3.148,11.018-11.53,19.771-22.4,23.395l-22.593,7.531   c-7.814,2.604-14.448,7.903-18.714,14.949l-43.741,72.223L82.443,392.677z" fill="#00bea9"/></g><path d="M256,440.406c-90.058,0-176.659-27.212-250.43-78.69c-5.899-4.114-7.339-12.228-3.229-18.123  c4.119-5.902,12.228-7.347,18.127-3.225C89.849,388.783,171.298,414.372,256,414.372s166.151-25.589,235.532-74.004  c5.89-4.119,14-2.678,18.127,3.225c4.11,5.894,2.67,14.008-3.229,18.123C432.661,413.194,346.06,440.406,256,440.406z" fill="#8d8a94"/></g></defs><g fi:class="KUsePattern"><pattern id="pattern_L1_0" width="350" height="350" patternUnits="userSpaceOnUse"><use xlink:href="#L1_0" x="-350" y="-350"/><use xlink:href="#L1_0" x="0" y="-350"/><use xlink:href="#L1_0" x="350" y="-350"/><use xlink:href="#L1_0" x="-350" y="0"/><use xlink:href="#L1_0" x="0" y="0"/><use xlink:href="#L1_0" x="350" y="0"/><use xlink:href="#L1_0" x="-350" y="350"/><use xlink:href="#L1_0" x="0" y="350"/><use xlink:href="#L1_0" x="350" y="350"/></pattern><rect x="0" y="0" width="100%" height="100%" fill="url(#pattern_L1_0)"/></g><g fi:class="KUsePattern"><pattern id="pattern_L1_1" width="350" height="350" patternUnits="userSpaceOnUse"><use xlink:href="#L1_1" x="-350" y="-350"/><use xlink:href="#L1_1" x="0" y="-350"/><use xlink:href="#L1_1" x="350" y="-350"/><use xlink:href="#L1_1" x="-350" y="0"/><use xlink:href="#L1_1" x="0" y="0"/><use xlink:href="#L1_1" x="350" y="0"/><use xlink:href="#L1_1" x="-350" y="350"/><use xlink:href="#L1_1" x="0" y="350"/><use xlink:href="#L1_1" x="350" y="350"/></pattern><rect x="0" y="0" width="100%" height="100%" fill="url(#pattern_L1_1)"/></g><g fi:class="KUsePattern"><pattern id="pattern_L1_2" width="350" height="350" patternUnits="userSpaceOnUse"><use xlink:href="#L1_2" x="-350" y="-350"/><use xlink:href="#L1_2" x="0" y="-350"/><use xlink:href="#L1_2" x="350" y="-350"/><use xlink:href="#L1_2" x="-350" y="0"/><use xlink:href="#L1_2" x="0" y="0"/><use xlink:href="#L1_2" x="350" y="0"/><use xlink:href="#L1_2" x="-350" y="350"/><use xlink:href="#L1_2" x="0" y="350"/><use xlink:href="#L1_2" x="350" y="350"/></pattern><rect x="0" y="0" width="100%" height="100%" fill="url(#pattern_L1_2)"/></g><g fi:class="KUsePattern"><pattern id="pattern_L1_3" width="350" height="350" patternUnits="userSpaceOnUse"><use xlink:href="#L1_3" x="-350" y="-350"/><use xlink:href="#L1_3" x="0" y="-350"/><use xlink:href="#L1_3" x="350" y="-350"/><use xlink:href="#L1_3" x="-350" y="0"/><use xlink:href="#L1_3" x="0" y="0"/><use xlink:href="#L1_3" x="350" y="0"/><use xlink:href="#L1_3" x="-350" y="350"/><use xlink:href="#L1_3" x="0" y="350"/><use xlink:href="#L1_3" x="350" y="350"/></pattern><rect x="0" y="0" width="100%" height="100%" fill="url(#pattern_L1_3)"/></g><g fi:class="KUsePattern"><pattern id="pattern_L1_4" width="350" height="350" patternUnits="userSpaceOnUse"><use xlink:href="#L1_4" x="-350" y="-350"/><use xlink:href="#L1_4" x="0" y="-350"/><use xlink:href="#L1_4" x="350" y="-350"/><use xlink:href="#L1_4" x="-350" y="0"/><use xlink:href="#L1_4" x="0" y="0"/><use xlink:href="#L1_4" x="350" y="0"/><use xlink:href="#L1_4" x="-350" y="350"/><use xlink:href="#L1_4" x="0" y="350"/><use xlink:href="#L1_4" x="350" y="350"/></pattern><rect x="0" y="0" width="100%" height="100%" fill="url(#pattern_L1_4)"/></g></svg>